<svg width="118" height="34" viewBox="0 0 118 34" fill="none" xmlns="http://www.w3.org/2000/svg">
<g clip-path="url(#clip0_129_917)">
<path fill-rule="evenodd" clip-rule="evenodd" d="M9.40209 1.46249e-06H108.603C108.958 1.46249e-06 109.318 -0.000109038 109.672 0.00159096C109.917 0.00294394 110.168 0.0065114 110.415 0.0100326C110.471 0.0108252 110.526 0.0116154 110.581 0.0123775C111.242 0.0187081 111.901 0.0689388 112.553 0.162623C113.208 0.258606 113.842 0.438234 114.435 0.695573C115.621 1.22062 116.586 2.05292 117.195 3.0754C117.492 3.58488 117.698 4.13039 117.805 4.69323C117.915 5.25575 117.977 5.82456 117.988 6.39493C117.992 6.65557 117.992 6.91705 117.992 7.17769C118 7.48564 118 7.79443 118 8.10571V25.8951C118 26.2089 118 26.516 117.992 26.8248C117.992 27.0887 117.992 27.3444 117.988 27.6084C117.977 28.1788 117.915 28.7475 117.805 29.31C117.699 29.8732 117.493 30.419 117.195 30.9287C116.892 31.4359 116.499 31.899 116.03 32.3009C115.564 32.7062 115.025 33.0444 114.435 33.3027C113.842 33.5608 113.208 33.7415 112.553 33.8389C111.901 33.9319 111.242 33.9821 110.581 33.9892C110.281 33.995 109.973 33.9983 109.672 33.9983C109.318 34 108.958 34 108.603 34H9.40209C9.04051 34 8.68322 34 8.32258 33.9983C8.02069 33.9983 7.7212 33.995 7.41641 33.9892C6.75431 33.9817 6.09378 33.9315 5.44038 33.8389C4.78793 33.7422 4.15606 33.5614 3.56593 33.3027C2.9751 33.0446 2.43619 32.7063 1.96979 32.3009C1.49908 31.9006 1.10672 31.4372 0.807956 30.9287C0.507945 30.4194 0.300104 29.8735 0.191647 29.31C0.081859 28.7476 0.0227796 28.1787 0.0149393 27.6084C0.00868743 27.4281 0.00625574 27.2516 0.00380481 27.0737C0.00266829 26.9912 0.00152763 26.9084 0 26.8248V7.17769C0.00154573 7.09414 0.00269527 7.0105 0.00384521 6.92683C0.00628258 6.7495 0.00872178 6.57203 0.0149393 6.39496C0.0227772 5.82464 0.0818566 5.25571 0.191647 4.69326C0.300404 4.1301 0.508233 3.58454 0.807956 3.07544C1.10685 2.56532 1.49916 2.10004 1.96979 1.69751C2.43796 1.29384 2.97652 0.955802 3.56593 0.69565C4.15606 0.43768 4.788 0.258004 5.44038 0.1627C6.09367 0.0694263 6.75426 0.019213 7.41641 0.0124965C7.47969 0.0116336 7.54274 0.0107369 7.60562 0.00984259C7.84566 0.00642902 8.08336 0.00304853 8.32258 0.00170146C8.68323 1.46253e-06 9.04049 1.46249e-06 9.40209 1.46249e-06ZM7.34925 33.2497C7.64785 33.2555 7.94154 33.2588 8.2425 33.2588L108.692 33.2605L109.762 33.2588C110.056 33.2588 110.359 33.2555 110.649 33.2497C111.267 33.2432 111.885 33.1969 112.495 33.111C113.069 33.0273 113.624 32.8698 114.143 32.6436C114.655 32.4196 115.122 32.1261 115.525 31.7743C115.929 31.4294 116.268 31.0319 116.528 30.5962C116.79 30.1493 116.97 29.6704 117.062 29.1764C117.163 28.6554 117.219 28.1287 117.231 27.6006C117.234 27.34 117.234 27.0867 117.234 26.8102C117.242 26.5064 117.242 26.205 117.242 25.8961V8.10301C117.242 7.79706 117.242 7.49361 117.234 7.17479C117.234 6.91741 117.234 6.65878 117.232 6.41801C117.22 5.88031 117.162 5.34406 117.06 4.81355C116.967 4.32599 116.789 3.85335 116.531 3.41168C116.005 2.52842 115.171 1.80902 114.146 1.3543C113.625 1.12941 113.069 0.972434 112.495 0.888535C111.888 0.802803 111.274 0.756595 110.659 0.750304L109.757 0.739507H8.24299L7.35168 0.749888C6.73096 0.756507 6.11168 0.803131 5.49905 0.889368C4.93083 0.972228 4.3803 1.12812 3.86591 1.35181C3.35419 1.57745 2.88677 1.87077 2.48068 2.22109C2.07414 2.56812 1.73551 2.96948 1.47793 3.4096C1.21641 3.85434 1.03538 4.33087 0.941102 4.82268C0.839786 5.34888 0.785125 5.88094 0.777592 6.41427C0.771813 6.58697 0.763081 7.17479 0.763081 7.17479V26.8144C0.763081 26.8144 0.77128 27.4114 0.777542 27.5907C0.78541 28.1248 0.84039 28.6577 0.942011 29.1848C1.03611 29.6752 1.217 30.1504 1.47838 30.5937C1.73692 31.0341 2.07743 31.4352 2.48644 31.7809C2.88961 32.1309 3.35555 32.4227 3.86639 32.6452C4.38197 32.8697 4.93354 33.0266 5.50292 33.111C6.11354 33.1964 6.73067 33.2428 7.34925 33.2497Z" fill="#000101"/>
<path d="M8.24248 33.259C7.94152 33.259 7.64783 33.2557 7.34923 33.2499C6.73065 33.243 6.11352 33.1967 5.5029 33.1113C4.93352 33.0269 4.38195 32.8699 3.86637 32.6455C3.35553 32.4229 2.88959 32.1311 2.48642 31.7812C2.07741 31.4354 1.7369 31.0343 1.47836 30.5939C1.21698 30.1506 1.03609 29.6755 0.941991 29.185C0.840371 28.658 0.78539 28.1251 0.777523 27.5909C0.77126 27.4116 0.763062 26.8146 0.763062 26.8146V7.17503C0.763062 7.17503 0.771794 6.58721 0.777572 6.41451C0.785105 5.88118 0.839766 5.34912 0.941082 4.82292C1.03536 4.33111 1.21639 3.85458 1.47791 3.40984C1.73549 2.96971 2.07412 2.56836 2.48066 2.22133C2.88675 1.87101 3.35417 1.57768 3.86589 1.35205C4.38028 1.12836 4.93081 0.972467 5.49903 0.889607C6.11166 0.80337 6.73094 0.756746 7.35166 0.750127L8.24297 0.739746H109.757L110.659 0.750543C111.274 0.756834 111.888 0.803042 112.495 0.888774C113.069 0.972674 113.625 1.12965 114.146 1.35454C115.171 1.80926 116.005 2.52866 116.531 3.41191C116.788 3.85359 116.967 4.32623 117.06 4.81379C117.162 5.3443 117.22 5.88055 117.231 6.41825C117.234 6.65902 117.234 6.91765 117.234 7.17503C117.242 7.49385 117.242 7.7973 117.242 8.10325V25.8963C117.242 26.2052 117.242 26.5066 117.234 26.8104C117.234 27.0869 117.234 27.3402 117.231 27.6009C117.219 28.129 117.163 28.6556 117.062 29.1767C116.97 29.6707 116.79 30.1495 116.528 30.5965C116.268 31.0321 115.929 31.4297 115.525 31.7746C115.122 32.1263 114.655 32.4199 114.143 32.6439C113.624 32.87 113.068 33.0276 112.495 33.1113C111.885 33.1971 111.267 33.2435 110.649 33.2499C110.359 33.2557 110.056 33.259 109.762 33.259L108.692 33.2607L8.24248 33.259Z" fill="#000101"/>
<path d="M28.6673 17.2555C28.6767 16.546 28.8705 15.8504 29.2306 15.2333C29.5908 14.6163 30.1055 14.0978 30.7271 13.7262C30.3322 13.1778 29.8113 12.7265 29.2058 12.4082C28.6002 12.0898 27.9266 11.9131 27.2385 11.8922C25.7707 11.7424 24.3478 12.7463 23.5998 12.7463C22.8374 12.7463 21.6858 11.9071 20.4457 11.9319C19.6436 11.9571 18.8619 12.1839 18.1767 12.5903C17.4916 12.9966 16.9263 13.5686 16.5361 14.2506C14.8456 17.0967 16.1066 21.2796 17.7259 23.5802C18.536 24.7068 19.4829 25.9652 20.7219 25.9205C21.9343 25.8716 22.3871 25.1687 23.8505 25.1687C25.3004 25.1687 25.7252 25.9205 26.9893 25.8922C28.2903 25.8716 29.11 24.7606 29.8917 23.6234C30.4738 22.8207 30.9218 21.9335 31.2189 20.9948C30.4631 20.6839 29.8181 20.1635 29.3644 19.4986C28.9106 18.8336 28.6682 18.0535 28.6673 17.2555V17.2555Z" fill="white"/>
<path d="M26.2796 10.3791C26.989 9.55106 27.3384 8.48671 27.2538 7.41211C26.1701 7.5228 25.1691 8.02647 24.4501 8.82278C24.0986 9.21179 23.8294 9.66436 23.6579 10.1546C23.4864 10.6449 23.4159 11.1632 23.4504 11.68C23.9925 11.6854 24.5287 11.5711 25.0188 11.3458C25.5089 11.1205 25.94 10.79 26.2796 10.3791Z" fill="white"/>
<path d="M43.9927 23.0687H39.8554L38.8618 25.9217H37.1094L41.0282 15.3664H42.8489L46.7677 25.9217H44.9854L43.9927 23.0687ZM40.2839 21.7522H43.5634L41.9467 17.1221H41.9015L40.2839 21.7522Z" fill="white"/>
<path d="M55.231 22.0743C55.231 24.4658 53.9148 26.0022 51.9285 26.0022C51.4254 26.0278 50.9249 25.9151 50.4846 25.677C50.0442 25.4389 49.6817 25.085 49.4386 24.6558H49.401V28.4676H47.7766V18.2261H49.349V19.506H49.3788C49.6332 19.079 50.0018 18.7269 50.4455 18.4873C50.8892 18.2478 51.3914 18.1296 51.8986 18.1455C53.9071 18.1456 55.231 19.6895 55.231 22.0743ZM53.5614 22.0743C53.5614 20.5163 52.7334 19.4919 51.4701 19.4919C50.229 19.4919 49.3942 20.5378 49.3942 22.0743C49.3942 23.6249 50.229 24.6633 51.4701 24.6633C52.7334 24.6633 53.5614 23.6465 53.5614 22.0743Z" fill="white"/>
<path d="M63.9411 22.0743C63.9411 24.4658 62.6248 26.0022 60.6385 26.0022C60.1354 26.0278 59.635 25.9151 59.1946 25.677C58.7542 25.4389 58.3918 25.085 58.1486 24.6558H58.111V28.4676H56.4866V18.2261H58.059V19.5061H58.0888C58.3431 19.079 58.7118 18.7269 59.1555 18.4873C59.5992 18.2478 60.1014 18.1296 60.6086 18.1456C62.6171 18.1456 63.9411 19.6895 63.9411 22.0743ZM62.2714 22.0743C62.2714 20.5163 61.4435 19.4919 60.1801 19.4919C58.939 19.4919 58.1042 20.5378 58.1042 22.0743C58.1042 23.6249 58.939 24.6633 60.1801 24.6633C61.4435 24.6633 62.2714 23.6465 62.2714 22.0743Z" fill="white"/>
<path d="M69.6977 22.9808C69.818 24.0275 70.8637 24.7148 72.2926 24.7148C73.6617 24.7148 74.6468 24.0275 74.6468 23.0836C74.6468 22.2644 74.0527 21.7738 72.6459 21.4376L71.2392 21.1081C69.2461 20.6399 68.3208 19.7334 68.3208 18.2626C68.3208 16.4414 69.9529 15.1904 72.2704 15.1904C74.5639 15.1904 76.1363 16.4414 76.1892 18.2626H74.5494C74.4513 17.2092 73.5559 16.5733 72.2473 16.5733C70.9388 16.5733 70.0433 17.2167 70.0433 18.153C70.0433 18.8992 70.6152 19.3383 72.0143 19.6745L73.2101 19.96C75.4372 20.4722 76.3624 21.3421 76.3624 22.8861C76.3624 24.8608 74.7449 26.0976 72.1722 26.0976C69.7651 26.0976 68.1398 24.8899 68.0348 22.9807L69.6977 22.9808Z" fill="white"/>
<path d="M79.8681 16.4049V18.2261H81.373V19.477H79.8681V23.7195C79.8681 24.3786 80.1695 24.6857 80.831 24.6857C81.0096 24.6827 81.188 24.6705 81.3653 24.6492V25.8926C81.0679 25.9467 80.7656 25.9712 80.4631 25.9657C78.8609 25.9657 78.2361 25.3805 78.2361 23.888V19.477H77.0855V18.2261H78.2361V16.4049H79.8681Z" fill="white"/>
<path d="M82.2446 22.0743C82.2446 19.653 83.711 18.1314 85.9978 18.1314C88.2922 18.1314 89.7519 19.6529 89.7519 22.0743C89.7519 24.5023 88.2999 26.0172 85.9978 26.0172C83.6965 26.0172 82.2446 24.5023 82.2446 22.0743ZM88.0968 22.0743C88.0968 20.4133 87.314 19.433 85.9978 19.433C84.6816 19.433 83.8997 20.4208 83.8997 22.0743C83.8997 23.7419 84.6816 24.7148 85.9978 24.7148C87.314 24.7148 88.0968 23.7419 88.0968 22.0743Z" fill="white"/>
<path d="M91.0911 18.2261H92.6404V19.5359H92.678C92.7828 19.1268 93.0292 18.7653 93.3759 18.5121C93.7225 18.2589 94.1483 18.1295 94.5815 18.1455C94.7687 18.1449 94.9553 18.1647 95.138 18.2045V19.682C94.9017 19.6118 94.6552 19.5795 94.4082 19.5866C94.1722 19.5773 93.9369 19.6177 93.7185 19.7052C93.5002 19.7926 93.3038 19.925 93.143 20.0932C92.9822 20.2614 92.8607 20.4615 92.7869 20.6796C92.7132 20.8978 92.6888 21.1289 92.7155 21.3571V25.9217H91.0911L91.0911 18.2261Z" fill="white"/>
<path d="M102.627 23.6614C102.409 25.0584 101.01 26.0172 99.2198 26.0172C96.9177 26.0172 95.4888 24.5172 95.4888 22.1108C95.4888 19.697 96.9254 18.1314 99.1516 18.1314C101.341 18.1314 102.718 19.594 102.718 21.9274V22.4686H97.1286V22.5641C97.1028 22.8473 97.1392 23.1326 97.2355 23.4011C97.3318 23.6695 97.4858 23.915 97.6871 24.1211C97.8885 24.3273 98.1326 24.4895 98.4034 24.5968C98.6741 24.7042 98.9652 24.7543 99.2574 24.7438C99.6413 24.7788 100.026 24.6924 100.356 24.4973C100.685 24.3023 100.941 24.0091 101.085 23.6614L102.627 23.6614ZM97.1362 21.3646H101.093C101.107 21.1099 101.068 20.8551 100.976 20.6161C100.885 20.377 100.743 20.159 100.561 19.9756C100.379 19.7922 100.159 19.6474 99.9169 19.5503C99.6743 19.4532 99.4138 19.4059 99.1516 19.4114C98.887 19.4099 98.6248 19.4593 98.38 19.5568C98.1353 19.6544 97.9128 19.7981 97.7254 19.9797C97.538 20.1613 97.3895 20.3771 97.2884 20.6148C97.1873 20.8525 97.1356 21.1074 97.1362 21.3646Z" fill="white"/>
<path d="M40.0803 7.42177C40.4208 7.39801 40.7626 7.44804 41.0808 7.56826C41.3991 7.68848 41.6859 7.87588 41.9207 8.11697C42.1555 8.35805 42.3323 8.64679 42.4384 8.96237C42.5445 9.27795 42.5773 9.6125 42.5343 9.94189C42.5343 11.5622 41.6338 12.4936 40.0803 12.4936H38.1964V7.42177H40.0803ZM39.0065 11.7763H39.9898C40.2331 11.7905 40.4767 11.7517 40.7026 11.6627C40.9286 11.5738 41.1314 11.437 41.2961 11.2623C41.4609 11.0876 41.5835 10.8793 41.6551 10.6527C41.7266 10.426 41.7453 10.1868 41.7098 9.95222C41.7427 9.71862 41.7221 9.48081 41.6495 9.25585C41.5768 9.03088 41.4539 8.82433 41.2895 8.65099C41.1252 8.47765 40.9234 8.34181 40.6987 8.25321C40.474 8.16461 40.2319 8.12544 39.9898 8.1385H39.0065V11.7763Z" fill="white"/>
<path d="M43.4494 10.5781C43.4246 10.3266 43.4542 10.0728 43.5363 9.83304C43.6183 9.59328 43.7509 9.37284 43.9257 9.18586C44.1005 8.99887 44.3135 8.84947 44.5511 8.74724C44.7887 8.645 45.0457 8.59219 45.3055 8.59219C45.5653 8.59219 45.8223 8.645 46.0599 8.74724C46.2976 8.84947 46.5106 8.99887 46.6853 9.18586C46.8601 9.37284 46.9927 9.59328 47.0748 9.83304C47.1568 10.0728 47.1864 10.3266 47.1616 10.5781C47.1869 10.8299 47.1576 11.084 47.0758 11.3242C46.994 11.5643 46.8614 11.7852 46.6866 11.9725C46.5118 12.1599 46.2986 12.3096 46.0608 12.412C45.8229 12.5145 45.5657 12.5674 45.3055 12.5674C45.0454 12.5674 44.7881 12.5145 44.5502 12.412C44.3124 12.3096 44.0992 12.1599 43.9244 11.9725C43.7496 11.7852 43.617 11.5643 43.5352 11.3242C43.4534 11.084 43.4242 10.8299 43.4494 10.5781ZM46.3627 10.5781C46.3627 9.74845 45.9794 9.26327 45.3068 9.26327C44.6316 9.26327 44.2518 9.74845 44.2518 10.5781C44.2518 11.4144 44.6316 11.8959 45.3068 11.8959C45.9794 11.8959 46.3627 11.4111 46.3627 10.5781Z" fill="white"/>
<path d="M52.0962 12.4935H51.2905L50.477 9.67456H50.4155L49.6055 12.4935H48.8074L47.7225 8.66602H48.5103L49.2154 11.5866H49.2734L50.0826 8.66602H50.8278L51.637 11.5866H51.6985L52.4001 8.66602H53.1769L52.0962 12.4935Z" fill="white"/>
<path d="M54.0894 8.66602H54.8371V9.27405H54.8951C54.9936 9.05567 55.1597 8.8726 55.3702 8.75037C55.5808 8.62813 55.8253 8.57282 56.0697 8.59214C56.2612 8.57814 56.4535 8.60622 56.6323 8.6743C56.8112 8.74238 56.9719 8.84872 57.1028 8.98544C57.2336 9.12215 57.3311 9.28575 57.3881 9.46409C57.4451 9.64244 57.4601 9.83097 57.432 10.0157V12.4935H56.6552V10.2054C56.6552 9.59032 56.3804 9.28443 55.8059 9.28443C55.6759 9.27854 55.5461 9.30006 55.4254 9.34752C55.3048 9.39497 55.1961 9.46724 55.1068 9.55937C55.0175 9.6515 54.9498 9.7613 54.9083 9.88126C54.8667 10.0012 54.8523 10.1285 54.8661 10.2544V12.4935H54.0894L54.0894 8.66602Z" fill="white"/>
<path d="M58.6697 7.17188H59.4465V12.4935H58.6697V7.17188Z" fill="white"/>
<path d="M60.5263 10.5781C60.5015 10.3266 60.5311 10.0728 60.6132 9.833C60.6952 9.59323 60.8279 9.37279 61.0027 9.1858C61.1775 8.99881 61.3905 8.8494 61.6281 8.74717C61.8658 8.64493 62.1228 8.59212 62.3826 8.59212C62.6425 8.59212 62.8994 8.64493 63.1371 8.74717C63.3747 8.8494 63.5877 8.99881 63.7625 9.1858C63.9373 9.37279 64.07 9.59323 64.152 9.833C64.2341 10.0728 64.2637 10.3266 64.2389 10.5781C64.2641 10.8299 64.2349 11.084 64.153 11.3242C64.0712 11.5643 63.9386 11.7852 63.7638 11.9725C63.589 12.1599 63.3758 12.3096 63.1379 12.412C62.9 12.5145 62.6428 12.5674 62.3826 12.5674C62.1225 12.5674 61.8652 12.5145 61.6273 12.412C61.3894 12.3096 61.1762 12.1599 61.0014 11.9725C60.8266 11.7852 60.694 11.5643 60.6122 11.3242C60.5303 11.084 60.5011 10.8299 60.5263 10.5781ZM63.4396 10.5781C63.4396 9.74845 63.0563 9.26327 62.3837 9.26327C61.7085 9.26327 61.3287 9.74845 61.3287 10.5781C61.3287 11.4144 61.7085 11.8959 62.3837 11.8959C63.0563 11.8959 63.4396 11.4111 63.4396 10.5781Z" fill="white"/>
<path d="M65.0567 11.4111C65.0567 10.7221 65.5842 10.3249 66.5206 10.2685L67.5867 10.2087V9.87836C67.5867 9.47411 67.3119 9.24584 66.7809 9.24584C66.3473 9.24584 66.0469 9.40065 65.9606 9.67126H65.2086C65.288 9.01383 65.9239 8.59216 66.8168 8.59216C67.8035 8.59216 68.3601 9.06986 68.3601 9.87836V12.4935H67.6123V11.9556H67.5509C67.4261 12.1486 67.251 12.3059 67.0433 12.4114C66.8356 12.517 66.6028 12.5671 66.3687 12.5566C66.2034 12.5733 66.0364 12.5562 65.8784 12.5063C65.7204 12.4564 65.5749 12.3748 65.4513 12.2669C65.3277 12.159 65.2287 12.0271 65.1608 11.8797C65.0928 11.7323 65.0573 11.5726 65.0567 11.4111ZM67.5867 11.084V10.7641L66.6256 10.8238C66.0836 10.8591 65.8377 11.0384 65.8377 11.3758C65.8377 11.7203 66.145 11.9208 66.5676 11.9208C66.6914 11.9329 66.8164 11.9208 66.9353 11.885C67.0542 11.8492 67.1645 11.7906 67.2595 11.7125C67.3546 11.6344 67.4326 11.5386 67.4888 11.4306C67.545 11.3226 67.5783 11.2048 67.5867 11.084Z" fill="white"/>
<path d="M69.381 10.5781C69.381 9.36869 70.0203 8.60253 71.0147 8.60253C71.2607 8.59151 71.5048 8.6488 71.7186 8.76771C71.9323 8.88662 72.1068 9.06223 72.2217 9.27403H72.2798V7.17188H73.0565V12.4935H72.3122V11.8888H72.2507C72.127 12.0992 71.9464 12.2726 71.7285 12.3903C71.5106 12.508 71.2638 12.5655 71.0147 12.5566C70.0135 12.5566 69.381 11.7904 69.381 10.5781ZM70.1834 10.5781C70.1834 11.3899 70.5769 11.8784 71.235 11.8784C71.8897 11.8784 72.2943 11.3829 72.2943 10.5814C72.2943 9.78373 71.8854 9.28112 71.235 9.28112C70.5811 9.28112 70.1834 9.77293 70.1834 10.5781Z" fill="white"/>
<path d="M76.2703 10.5781C76.2455 10.3266 76.2751 10.0728 76.3571 9.83304C76.4392 9.59328 76.5718 9.37284 76.7466 9.18586C76.9213 8.99887 77.1344 8.84947 77.372 8.74724C77.6096 8.645 77.8666 8.59219 78.1264 8.59219C78.3862 8.59219 78.6432 8.645 78.8808 8.74724C79.1184 8.84947 79.3315 8.99887 79.5062 9.18586C79.681 9.37284 79.8136 9.59328 79.8957 9.83304C79.9777 10.0728 80.0073 10.3266 79.9825 10.5781C80.0077 10.8299 79.9785 11.084 79.8967 11.3242C79.8149 11.5643 79.6823 11.7852 79.5075 11.9725C79.3327 12.1599 79.1195 12.3096 78.8817 12.412C78.6438 12.5145 78.3865 12.5674 78.1264 12.5674C77.8663 12.5674 77.609 12.5145 77.3711 12.412C77.1333 12.3096 76.9201 12.1599 76.7453 11.9725C76.5705 11.7852 76.4379 11.5643 76.3561 11.3242C76.2743 11.084 76.2451 10.8299 76.2703 10.5781ZM79.1836 10.5781C79.1836 9.74845 78.8003 9.26327 78.1277 9.26327C77.4525 9.26327 77.0727 9.74845 77.0727 10.5781C77.0727 11.4144 77.4525 11.8959 78.1277 11.8959C78.8003 11.8959 79.1836 11.4111 79.1836 10.5781Z" fill="white"/>
<path d="M81.0248 8.66602H81.7725V9.27405H81.8305C81.929 9.05567 82.0951 8.8726 82.3056 8.75037C82.5162 8.62813 82.7607 8.57282 83.0051 8.59214C83.1966 8.57814 83.3889 8.60622 83.5677 8.6743C83.7466 8.74238 83.9073 8.84872 84.0382 8.98544C84.169 9.12215 84.2665 9.28575 84.3235 9.46409C84.3805 9.64244 84.3955 9.83097 84.3674 10.0157V12.4935H83.5906V10.2054C83.5906 9.59032 83.3158 9.28443 82.7413 9.28443C82.6113 9.27854 82.4815 9.30006 82.3608 9.34752C82.2402 9.39497 82.1315 9.46724 82.0422 9.55937C81.9529 9.6515 81.8852 9.7613 81.8437 9.88126C81.8021 10.0012 81.7877 10.1285 81.8015 10.2544V12.4935H81.0248V8.66602Z" fill="white"/>
<path d="M88.7566 7.7131V8.68346H89.6093V9.31971H88.7566V11.2878C88.7566 11.6888 88.9264 11.8643 89.3131 11.8643C89.4121 11.864 89.511 11.8582 89.6093 11.8469V12.4761C89.4698 12.5003 89.3285 12.5133 89.1868 12.5147C88.3229 12.5147 87.9789 12.2192 87.9789 11.4812V9.31968H87.3541V8.68342H87.9789V7.7131H88.7566Z" fill="white"/>
<path d="M90.6703 7.17188H91.4402V9.28111H91.5017C91.6049 9.06068 91.7756 8.87658 91.9903 8.75389C92.2051 8.63119 92.4535 8.57587 92.7018 8.59546C92.8923 8.58538 93.0828 8.61631 93.2596 8.68605C93.4364 8.75578 93.5952 8.86261 93.7246 8.99889C93.8541 9.13518 93.9511 9.29757 94.0086 9.47449C94.0661 9.6514 94.0827 9.83848 94.0573 10.0224V12.4935H93.2798V10.2087C93.2798 9.59736 92.9869 9.28774 92.4381 9.28774C92.3046 9.27709 92.1703 9.29494 92.0447 9.34003C91.919 9.38513 91.805 9.45638 91.7106 9.54881C91.6162 9.64124 91.5437 9.7526 91.4982 9.87512C91.4527 9.99764 91.4352 10.1283 91.4471 10.2581V12.4935H90.6703L90.6703 7.17188Z" fill="white"/>
<path d="M98.5865 11.4601C98.4809 11.8099 98.2523 12.1125 97.9405 12.3149C97.6287 12.5173 97.2537 12.6067 96.881 12.5674C96.6217 12.574 96.364 12.5257 96.1258 12.4258C95.8876 12.3259 95.6747 12.1768 95.5017 11.9889C95.3287 11.8009 95.1998 11.5786 95.1241 11.3373C95.0483 11.0961 95.0274 10.8417 95.0629 10.5918C95.0283 10.3412 95.0496 10.0862 95.1252 9.84424C95.2008 9.60227 95.329 9.37892 95.501 9.1893C95.6731 8.99969 95.8851 8.84825 96.1226 8.74522C96.3601 8.64219 96.6175 8.58999 96.8776 8.59215C97.9727 8.59215 98.6334 9.31975 98.6334 10.5216V10.7852H95.8541V10.8276C95.842 10.968 95.8601 11.1094 95.9074 11.2426C95.9547 11.3759 96.0302 11.498 96.1289 11.6013C96.2275 11.7045 96.3473 11.7865 96.4805 11.8421C96.6137 11.8977 96.7574 11.9256 96.9023 11.9241C97.0881 11.9457 97.2764 11.9132 97.4431 11.8306C97.6099 11.748 97.7476 11.619 97.8387 11.46L98.5865 11.4601ZM95.8541 10.2266H97.8421C97.8519 10.0981 97.834 9.96908 97.7894 9.84777C97.7449 9.72646 97.6747 9.61555 97.5835 9.52217C97.4923 9.4288 97.3819 9.35501 97.2596 9.30556C97.1373 9.25611 97.0057 9.23209 96.8733 9.23505C96.739 9.2334 96.6056 9.25793 96.4812 9.30719C96.3567 9.35644 96.2437 9.42942 96.1487 9.52183C96.0537 9.61423 95.9787 9.72419 95.9282 9.84523C95.8776 9.96627 95.8524 10.0959 95.8541 10.2266Z" fill="white"/>
</g>
<defs>
<clipPath id="clip0_129_917">
<rect width="118" height="34" rx="6.19224" fill="white"/>
</clipPath>
</defs>
</svg>
