<svg width="24" height="24" viewBox="0 0 24 24" fill="none" xmlns="http://www.w3.org/2000/svg">
<path fill-rule="evenodd" clip-rule="evenodd" d="M20.2331 4.7963C18.5003 3.04296 15.6901 3.04296 13.9573 4.7963L12.5192 6.25034C12.3813 6.3896 12.1943 6.4674 12 6.4674C11.8057 6.4674 11.6187 6.3896 11.4816 6.25034L10.0427 4.7963C8.30986 3.04296 5.49975 3.04296 3.76688 4.7963C2.03328 6.54889 2.03328 9.39185 3.76688 11.1452C3.77348 11.1518 3.78082 11.1593 3.78742 11.1659L12 20.1667L20.2126 11.1659C20.2192 11.1593 20.2265 11.1518 20.2331 11.1452C21.9667 9.39185 21.9667 6.54889 20.2331 4.7963ZM12.9196 3.74889C15.2252 1.41704 18.9645 1.41704 21.2708 3.74889C23.5727 6.07704 23.5764 9.84889 21.2818 12.1807L12.539 21.7615C12.4004 21.9133 12.2046 22 12 22C11.7954 22 11.5996 21.9133 11.461 21.7615L2.71822 12.1807C0.423622 9.84889 0.427255 6.07704 2.72919 3.74889C5.03552 1.41704 8.77478 1.41704 11.0804 3.74889L12 4.67852L12.9196 3.74889Z" fill="#05728F"/>
<path d="M20.2331 4.7963C18.5003 3.04296 15.6901 3.04296 13.9573 4.7963L12.5192 6.25034C12.3813 6.3896 12.1943 6.4674 12 6.4674C11.8057 6.4674 11.6187 6.3896 11.4816 6.25034L10.0427 4.7963C8.30986 3.04296 5.49975 3.04296 3.76688 4.7963C2.03328 6.54889 2.03328 9.39185 3.76688 11.1452L3.78742 11.1659L12 20.1667L20.2126 11.1659L20.2331 11.1452C21.9667 9.39185 21.9667 6.54889 20.2331 4.7963Z" fill="#05728F"/>
</svg>
