<svg width="24" height="24" viewBox="0 0 24 24" fill="none" xmlns="http://www.w3.org/2000/svg">
<g clip-path="url(#clip0_204_4058)">
<path fill-rule="evenodd" clip-rule="evenodd" d="M12 1C11.6167 1 11.2417 1.11643 10.9216 1.33488L10.9197 1.33618L9.72754 2.15533L9.72611 2.15632L0.314402 8.65753C-0.00996885 8.88159 -0.0976204 9.33569 0.118627 9.67178C0.334874 10.0079 0.773132 10.0987 1.0975 9.87463L1.88242 9.33244V18.3679C1.88242 19.5964 2.35342 20.7746 3.19181 21.6433C4.03021 22.512 5.16731 23 6.35298 23H17.647C18.8327 23 19.9698 22.512 20.8082 21.6433C21.6466 20.7746 22.1176 19.5964 22.1176 18.3679V9.33244L22.9025 9.87463C23.2269 10.0987 23.6651 10.0079 23.8814 9.67178C24.0976 9.33569 24.01 8.88159 23.6856 8.65753L14.2739 2.15631L13.0803 1.33617L13.0784 1.33488C12.7583 1.11643 12.3833 1 12 1ZM20.7058 8.35726L13.4922 3.3744L13.4908 3.37342L12.302 2.55654C12.2125 2.4957 12.107 2.46277 12 2.46277C11.893 2.46277 11.7883 2.49519 11.6988 2.55604L10.5092 3.37342L10.5078 3.3744L3.29417 8.35726V18.3679C3.29417 19.2084 3.61644 20.0146 4.19008 20.6089C4.76371 21.2033 5.54173 21.5372 6.35298 21.5372H17.647C18.4583 21.5372 19.2363 21.2033 19.8099 20.6089C20.3836 20.0146 20.7058 19.2084 20.7058 18.3679V8.35726Z" fill="#F7004E"/>
<path d="M20.7058 8.35726L13.4922 3.3744L13.4908 3.37342L12.302 2.55654C12.2125 2.4957 12.107 2.46277 12 2.46277C11.893 2.46277 11.7883 2.49519 11.6988 2.55604L10.5092 3.37342L10.5078 3.3744L3.29417 8.35726V18.3679C3.29417 19.2084 3.61644 20.0146 4.19008 20.6089C4.76371 21.2033 5.54173 21.5372 6.35298 21.5372H17.647C18.4583 21.5372 19.2363 21.2033 19.8099 20.6089C20.3836 20.0146 20.7058 19.2084 20.7058 18.3679V8.35726Z" fill="#F7004E"/>
<path fill-rule="evenodd" clip-rule="evenodd" d="M12 1C11.6167 1 11.2417 1.11643 10.9216 1.33488L10.9197 1.33618L9.72754 2.15533L9.72611 2.15632L0.314402 8.65753C-0.00996885 8.88159 -0.0976204 9.33569 0.118627 9.67178C0.334874 10.0079 0.773132 10.0987 1.0975 9.87463L1.88242 9.33244V18.3679C1.88242 19.5964 2.35342 20.7746 3.19181 21.6433C4.03021 22.512 5.16731 23 6.35298 23H17.647C18.8327 23 19.9698 22.512 20.8082 21.6433C21.6466 20.7746 22.1176 19.5964 22.1176 18.3679V9.33244L22.9025 9.87463C23.2269 10.0987 23.6651 10.0079 23.8814 9.67178C24.0976 9.33569 24.01 8.88159 23.6856 8.65753L14.2739 2.15631L13.0803 1.33617L13.0784 1.33488C12.7583 1.11643 12.3833 1 12 1ZM20.7058 8.35726L13.4922 3.3744L13.4908 3.37342L12.302 2.55654C12.2125 2.4957 12.107 2.46277 12 2.46277C11.893 2.46277 11.7883 2.49519 11.6988 2.55604L10.5092 3.37342L10.5078 3.3744L3.29417 8.35726V18.3679C3.29417 19.2084 3.61644 20.0146 4.19008 20.6089C4.76371 21.2033 5.54173 21.5372 6.35298 21.5372H17.647C18.4583 21.5372 19.2363 21.2033 19.8099 20.6089C20.3836 20.0146 20.7058 19.2084 20.7058 18.3679V8.35726Z" stroke="#F7004E"/>
<path d="M20.7058 8.35726L13.4922 3.3744L13.4908 3.37342L12.302 2.55654C12.2125 2.4957 12.107 2.46277 12 2.46277C11.893 2.46277 11.7883 2.49519 11.6988 2.55604L10.5092 3.37342L10.5078 3.3744L3.29417 8.35726V18.3679C3.29417 19.2084 3.61644 20.0146 4.19008 20.6089C4.76371 21.2033 5.54173 21.5372 6.35298 21.5372H17.647C18.4583 21.5372 19.2363 21.2033 19.8099 20.6089C20.3836 20.0146 20.7058 19.2084 20.7058 18.3679V8.35726Z" stroke="#F7004E"/>
</g>
<defs>
<clipPath id="clip0_204_4058">
<rect width="24" height="24" fill="white"/>
</clipPath>
</defs>
</svg>
