<svg width="36" height="36" viewBox="0 0 36 36" fill="none" xmlns="http://www.w3.org/2000/svg">
<rect width="36" height="36" rx="18" fill="#05728F"/>
<g clip-path="url(#clip0_151_4358)">
<path d="M17.559 17.8067C17.8021 18.0668 18.1979 18.0668 18.4444 17.8067L22.2257 13.7918C23.3229 12.6246 23.2604 10.691 22.0313 9.61526C20.9618 8.67659 19.3681 8.84534 18.3889 9.88596L18 10.2973L17.6146 9.88948C16.6354 8.84534 15.0417 8.67659 13.9722 9.61526C12.7465 10.691 12.6806 12.6246 13.7778 13.7918L17.559 17.8067ZM27.6285 20.5348C27.2188 20.1586 26.5799 20.1832 26.1493 20.5348L22.941 23.1328C22.5486 23.4528 22.059 23.625 21.5521 23.625H17.4444C17.1389 23.625 16.8889 23.3719 16.8889 23.0625C16.8889 22.7531 17.1389 22.5 17.4444 22.5H20.1632C20.7153 22.5 21.2292 22.1168 21.3194 21.5649C21.434 20.8617 20.8993 20.25 20.2222 20.25H14.6667C13.7292 20.25 12.8229 20.577 12.0938 21.1746L10.4792 22.5H8.55556C8.25 22.5 8 22.7531 8 23.0625V26.4375C8 26.7469 8.25 27 8.55556 27H20.9444C21.4479 27 21.9375 26.8278 22.3333 26.5078L27.5833 22.2539C28.1111 21.8285 28.1528 21.0129 27.6285 20.5348Z" fill="white"/>
</g>
<defs>
<clipPath id="clip0_151_4358">
<rect width="20" height="18" fill="white" transform="translate(8 9)"/>
</clipPath>
</defs>
</svg>
