<svg width="36" height="36" viewBox="0 0 36 36" fill="none" xmlns="http://www.w3.org/2000/svg">
<rect width="36" height="36" rx="18" fill="#FEA385"/>
<g clip-path="url(#clip0_129_879)">
<path d="M21.3333 8.00122H14.6666C13.75 8.00122 13 8.75122 13 9.66789V23.0012C13 23.9179 13.75 24.6679 14.6666 24.6679H24.6666C25.5833 24.6679 26.3333 23.9179 26.3333 23.0012V13.0012L21.3333 8.00122ZM24.6666 23.0012H14.6666V9.66789H20.5V13.8346H24.6666V23.0012ZM11.3333 11.3346V26.3346H24.6666V28.0012H11.3333C10.4166 28.0012 9.66663 27.2512 9.66663 26.3346V11.3346H11.3333ZM16.3333 16.3346V18.0012H23V16.3346H16.3333ZM16.3333 19.6679V21.3346H20.5V19.6679H16.3333Z" fill="white"/>
</g>
<defs>
<clipPath id="clip0_129_879">
<rect width="20" height="20" fill="white" transform="translate(8 8)"/>
</clipPath>
</defs>
</svg>
